# xmcd
# Track frame offsets:
# 150
# 16881
# 28646
# 45884
# 61409
# 79031
# 96731
# 114372
# 132447
#
# Disc length: 1957 seconds
# Revision: 0
# Processed by: cddbd v1.5.1PL0 Copyright (c) Steve Scherf et al.
# Submitted via: VisiTrax 2.9.10.228 - For more info visit www.synapsa.com
#
DISCID=6c07a309
DTITLE=Various Artist - Hits Monthly Nashville  PHN0210
DYEAR=1900
DGENRE=Karaoke
TTITLE0=Rascal Flatts - These Days
TTITLE1=Emerson Drive - Fall Into Me
TTITLE2=Urban, Keith - Somebody Like You
TTITLE3=Keith, Toby and Willie - Beer For My Horses
TTITLE4=Tritt, Travis - Strong Enough To Be Your Man
TTITLE5=Montgomery, John Michael - Til Nothing Comes Between Us
TTITLE6=Smith, Anthony - If That Ain't Country
TTITLE7=Brock, Chad - Man's Gotta Do, A
TTITLE8=Atkins, Rodney - Sing Along
EXTD=
EXTT0=
EXTT1=
EXTT2=
EXTT3=
EXTT4=
EXTT5=
EXTT6=
EXTT7=
EXTT8=
PLAYORDER=
